Inverse Dynamics Generalized Forces
version=1
nRows=5
nColumns=44
inDegrees=no
endheader
time	pelvis_tilt_moment	pelvis_list_moment	pelvis_rotation_moment	pelvis_tx_force	pelvis_ty_force	pelvis_tz_force	hip_flexion_r_moment	hip_adduction_r_moment	hip_rotation_r_moment	hip_flexion_l_moment	hip_adduction_l_moment	hip_rotation_l_moment	lumbar_extension_moment	lumbar_bending_moment	lumbar_rotation_moment	knee_angle_r_moment	knee_frontal_r_moment	knee_angle_r_beta_force	knee_angle_l_moment	knee_frontal_l_moment	knee_angle_l_beta_force	arm_flex_r_moment	arm_add_r_moment	arm_rot_r_moment	arm_flex_l_moment	arm_add_l_moment	arm_rot_l_moment	knee_adduction_r_moment	knee_adduction_l_moment	elbow_flex_r_moment	elbow_flex_l_moment	ankle_angle_r_moment	ankle_angle_l_moment	pro_sup_r_moment	pro_sup_l_moment	wrist_flex_r_moment	wrist_dev_r_moment	wrist_flex_l_moment	wrist_dev_l_moment	subtalar_angle_r_moment	subtalar_angle_l_moment	mtp_angle_r_moment	mtp_angle_l_moment
   -0.00000000000000	   13.48482559768610	   -2.19987132797070	    7.23825675273500	    7.04507016093772	  135.57027687255837	  -46.65069249685177	   33.81927900286870	   18.08417042685419	   -6.14515692899546	  -11.64472636191026	  -38.72088611421604	   -7.92037856446625	   10.20783750606811	   -1.29623409756741	   -0.11421530713617	    1.77652338211805	    9.73117485625539	   -0.03588058316098	   20.99673073269368	  -18.48309892053165	   -0.04158631172183	   -2.49010763756648	   -2.01616593512144	   -0.25171639161207	    0.38350089327239	   -3.51981705364038	   -0.84907681393393	   10.03258902641982	  -19.60312849620242	    0.14660402572232	    1.73228197489463	    2.85720915881383	  -79.23148679186377	   -0.01513716587102	   -0.05787412016087	   -0.01997062047943	   -0.02477849190629	   -0.02634782761362	   -0.19524301704381	   -0.26977319811220	    8.47358522040822	   -0.14434063370477	   -0.04162678722523
    0.00500000000000	    8.86450146577415	   -0.87018042047395	    5.80372268332663	    3.48952820740148	  128.36670469216497	  -46.11448150549865	   27.21085152365271	   18.54864766996729	   -5.81980625000400	   -8.46012115276709	  -39.66251801925999	   -6.88628257395470	    9.14208305357282	   -1.21548735399478	    0.28333649072209	    4.01800870125484	    9.96662661014239	   -0.03525416472445	   20.68150523631594	  -19.40073195591800	   -0.04146334308649	   -1.93288781301584	   -2.14761099818540	   -0.28380339671610	    0.10036720870252	   -3.31020177767493	   -0.76002881198773	   10.26340587528093	  -20.60714244792573	    0.32005561040469	    1.60502022066284	    2.72062928021233	  -80.51931178624562	   -0.02037945973706	   -0.05321665670579	   -0.02418088374051	   -0.04810303303746	   -0.01861098248049	   -0.17320801492807	   -0.25891023829793	    8.86081937315986	   -0.14030373614251	   -0.04102614900300
    0.01000000000000	    4.25923732710235	    0.36046148334054	    4.41045238084241	   -0.07842827316596	  121.13003179406549	  -45.50011987110351	   20.66915635967202	   18.94264161638068	   -5.48345169732846	   -5.34260293642518	  -40.57562995056668	   -5.90624038226511	    8.08980797089609	   -1.13606205840650	    0.67523920906334	    6.23036052643775	   10.17759822660403	   -0.03463100628202	   20.35816104272126	  -20.29210933969547	   -0.04133953388744	   -1.38319658073758	   -2.27692194880883	   -0.31530203425110	   -0.17779907619443	   -3.10422243118177	   -0.67235160877316	   10.46504234851891	  -21.57902218523901	    0.49117946739249	    1.47946344756957	    2.58168958348739	  -81.76035682704841	   -0.02554207391630	   -0.04863902060917	   -0.02830449213329	   -0.07110361213276	   -0.01104029002602	   -0.15148436973144	   -0.24832431424572	    9.22237509242746	   -0.13618696526024	   -0.04044770027653
    0.01500000000000	   -0.35700077612413	    1.38026821637418	    3.08496802070545	   -3.67248028435223	  113.63783568156248	  -44.68518672707739	   14.20461791670824	   19.16601959257595	   -5.12149430594428	   -2.34536501569210	  -41.44104733801819	   -5.03097048400266	    7.05783769538446	   -1.05667109314175	    1.05704270339058	    8.40809639886371	   10.32994498255830	   -0.03401495303975	   20.01415336230385	  -21.13865758470433	   -0.04120878821812	   -0.84544174864644	   -2.40237065696975	   -0.34568568019030	   -0.44694562511809	   -2.90458398092811	   -0.58707499707910	   10.59302592094138	  -22.49414197214057	    0.65869962872359	    1.35649855841256	    2.43702996587154	  -82.92169894585884	   -0.03056764295566	   -0.04420724456467	   -0.03225014907124	   -0.09359064987462	   -0.00380495589493	   -0.13023525563970	   -0.23940874715271	    9.53188146410809	   -0.13170723600058	   -0.03994713321736
    0.02000000000000	   -5.00072874599677	    2.09694396121531	    1.84672922820713	   -7.29246701965428	  105.69823335115296	  -43.56671597115087	    7.82945226345687	   19.13291171509972	   -4.72273080806814	    0.48668770185906	  -42.24453980865625	   -4.30077014869156	    6.05264384257249	   -0.97591671921686	    1.42457683424986	   10.54712942127168	   10.39434719626547	   -0.03341274337433	   19.63956118439777	  -21.92604819723083	   -0.04106551538819	   -0.32374030664753	   -2.52238261877965	   -0.37448087269688	   -0.70343190705360	   -2.71369848015658	   -0.50514450501819	   10.60870587139443	  -23.33331468039139	    0.82142522928668	    1.23695188016122	    2.28408463961039	  -83.97819456761374	   -0.03540360003933	   -0.03998105951599	   -0.03593588566630	   -0.11538852220133	    0.00294424981542	   -0.10960963223361	   -0.23349613492842	    9.76812868715801	   -0.12661136622658	   -0.03957691076944
